<svg xmlns="http://www.w3.org/2000/svg" width="64" height="64" viewBox="0 0 1024 1024"><path fill="#4BBB58" d="M860 304.2c-1.7-3.2-1.4-7.1.6-10.1 10.9-16.3 19.6-34.2 25.8-53.4 13.3-41.1 13.8-84.1 2-124.4-1.3-4.6.8-9.5 5-11.6 5.6-2.9 12.4.1 14.1 6.1 13.3 45.3 11.9 92.8-2.1 136.1-6.6 20.6-16.2 40.2-28.3 58.3-4.1 6.3-13.6 5.8-17.1-1z"/><path fill="#8C57C7" d="M394.9 886.5c-72.5 0-133.6-11.7-172-32.9-38.7-21.4-70.6-49.9-94.8-84.9-22.7-32.8-37.4-70.2-42.6-108.2-4.6-33.4-1.8-65.9 8.1-96.6 10.3-32.1 28.1-60.6 52.7-84.7 29.6-29 54.7-45.6 86.8-57.3 33.3-12.1 76.5-20.1 149.1-27.6 46.9-4.8 94.1-12.1 132.8-20.6 64.5-14.2 75.5-24.9 79.6-29 14.1-13.8 34.2-21.5 56.7-21.5 27.9 0 61.6 13.3 69.3 42.4 10.8 40.4 32.8 60.8 65.4 60.8 7.8 0 16-1.1 25.1-3.5 4.3-1.1 8.6-1.7 12.8-1.7 18.9 0 36.3 10.9 48.9 30.7 16.9 26.5 3.5 95.1-33.4 170.7-39.6 81.1-97.2 154.5-150.5 191.7-31.1 21.7-76.1 40-130 53-52.4 12.6-109.1 19.2-164 19.2z"/><path fill="#8C57C7" d="M213.2 871.2C53.5 783.1 13.3 581.5 132.2 465c59.6-58.4 108.2-76.2 247.8-90.5 95.5-9.8 185.7-29.6 200.4-44 48.5-47.5 143.4-29.7 159.3 30 10.6 39.6 30.2 52.4 66.2 43.1 32-8.2 63.4 6 83.6 37.7 45.8 71.9-68.9 305.4-189.3 389.5-113.6 79.3-375 102.2-487 40.4z"/><path fill="#B472F7" d="M394.9 886.5c-72.5 0-133.6-11.7-172-32.9-38.7-21.4-70.6-49.9-94.8-84.9-22.7-32.8-37.4-70.2-42.6-108.2-4.6-33.4-1.8-65.9 8.1-96.6 10.3-32.1 28.1-60.6 52.7-84.7 29.6-29 54.7-45.6 86.8-57.3 33.3-12.1 76.5-20.1 149.1-27.6 46.9-4.8 94.1-12.1 132.8-20.6 64.5-14.2 75.5-24.9 79.6-29 14.1-13.8 34.2-21.5 56.7-21.5 27.9 0 61.6 13.3 69.3 42.4 10.8 40.4 32.8 60.8 65.4 60.8 7.8 0 16-1.1 25.1-3.5 4.3-1.1 8.6-1.7 12.8-1.7 18.9 0 36.3 10.9 48.9 30.7 16.9 26.5 3.5 95.1-33.4 170.7-39.6 81.1-97.2 154.5-150.5 191.7-31.1 21.7-76.1 40-130 53-52.4 12.6-109.1 19.2-164 19.2z"/><path fill="#4BBB58" d="M921.8 214.1c.8 12.1-4.7 35.6 8.7 60.3 15.6 28.6 11.6 86.9-11.3 161.4l-20.6 121.9c-.7 4.1-6.3 5-8.2 1.3l-39.8-76c-23.3-49-44.6-58.7-80.6-49.5-38.2 9.8-54.3-7.8-54.3-49.6 0-40.9-16.8-55.8-62.8-55.8-34.5 0-70.4-7.4-79.7-16.6-24.6-24.1 169.5-115.3 245.4-115.3 0 0 100-30.9 103.2 17.9z"/><path fill="#7DE184" d="M868.5 474c-15-31.5-35.9-63.7-76.9-63.7-8.1 0-16.8 1.2-26.6 3.8-5.2 1.3-9.8 2-13.6 2-7.6 0-9.4-2.6-10.5-4.3-1.9-2.9-5.2-10.4-5.2-27.9 0-17-2.2-41.6-20.9-58.2-13.5-12-33.2-17.6-62-17.6-22 0-41.4-3.1-53.5-6.4 13-10.3 40.2-27.3 85.8-47.1 53.6-23.3 106-38.4 133.4-38.4h3l2.9-.9c.3-.1 28.8-8.7 53.5-8.7 12.1 0 18 2.1 20.5 3.4 2.6 1.3 3.3 2.4 3.5 5.4.1 1.7 0 4.8-.2 8-.6 13.7-1.7 36.7 11.3 60.6 9.9 18.1 11.7 65.9-12.8 146l-.4 1.2-13.1 77.5-18.2-34.7z"/><path fill="#FFF" d="M192.7 574.9c42.2-45.3 96.4-77.8 155.7-93.9 7.6-2.1 14.5 5.2 12 12.7-1 3.2-3.6 5.6-6.8 6.5-20.4 5.6-40.4 13.3-59.7 23.1-33 16.8-62.2 38.9-86.7 65.2-2.6 2.8-6.7 3.9-10.3 2.7-6.9-2.2-9.2-10.9-4.2-16.3z"/></svg>
